# xmcd CD Database Entry
#
# Track frame offsets:
# 150
# 15657
# 28851
# 38045
# 62192
# 78388
# 93982
# 108758
# 122216
#
# Disc length: 2224 seconds
#
# Revision: 1
# Processed by: cddbd v1.4b41PL1 Copyright (c) Steve Scherf et al.
# Submitted via: tcd 2.0b
#
DISCID=6b08ae09
DTITLE=The Immortal Lee County Killers - The Essential Fucked Up Blu
DTITLE=es!
DYEAR=1900
DGENRE=
TTITLE0=Let's Get Killed
TTITLE1=Killer 45
TTITLE2=Train She Rides
TTITLE3=Go to Hell on Judgement Day
TTITLE4=Big Damn Roach
TTITLE5=Said I'd Find My Way
TTITLE6=Won't Cook Fish
TTITLE7=Sometimes the Devil Sneaks Inside My Head
TTITLE8=Rollin' Stone
EXTD=
EXTT0=
EXTT1=
EXTT2=
EXTT3=
EXTT4=
EXTT5=
EXTT6=
EXTT7=
EXTT8=
PLAYORDER=
